<svg width="466" height="344" viewBox="0 0 466 344" fill="none" xmlns="http://www.w3.org/2000/svg">
<g clip-path="url(#clip0_465_110)">
<path d="M0.159147 29.7932C1.67393 43.4042 12.2978 54.1819 14.8184 67.625C15.1343 69.3874 15.3276 71.172 15.3966 72.9643C15.759 80.6849 14.3134 88.5647 15.0586 96.2981C16.4472 110.8 24.7825 122.134 35.3657 131.955C43.3712 139.366 52.6635 145.885 61.2107 152.193C82.9715 168.267 103.38 188.561 112.318 214.991C118.276 232.615 118.732 251.768 123.105 269.904C127.478 288.041 137.439 306.599 154.272 312.382C172.34 318.591 192.248 308.24 210.84 312.33C230.793 316.723 244.943 336.663 264.632 342.295C289.646 349.452 314.575 331.866 340.253 328.202C352.583 326.441 365.133 327.935 377.528 326.807C391.326 325.538 404.687 321.05 416.648 313.665C420.72 311.138 424.836 308.033 426.73 303.443C428.359 299.477 428.11 294.956 427.609 290.663C425.736 274.731 420.997 257.413 428.452 243.41C435.33 230.492 451.997 221.252 449.525 206.667C448.039 197.888 439.878 192.406 432.313 188.475C416.709 180.367 400.087 174.02 386.14 163.07C376.164 155.225 367.572 144.279 363.907 131.968C362.404 127.046 361.786 121.871 362.083 116.708C362.596 108.57 365.259 99.4328 360.617 92.918C358.605 90.0933 355.523 88.358 352.424 87.0318C340.737 82.0369 327.756 81.7484 315.605 78.2003C311.439 76.9977 307.435 75.2382 303.69 72.9643C296.279 68.4259 290.314 61.7388 288.872 53.0107C288.029 47.8953 288.779 42.3105 286.364 37.7893C282.292 30.1247 274.242 26.9211 265.251 25.8791C254.122 24.5873 241.519 26.6068 233.082 27.6015L232.239 27.6962C221.403 28.8889 210.657 26.3527 200.099 22.5291C188.697 18.4342 177.552 12.8623 166.708 8.90085C165.69 8.52767 164.675 8.17028 163.662 7.82868C155.747 5.16132 147.642 3.16707 139.426 1.86498C127.839 0.0206611 116.094 -0.458792 104.406 0.43541C98.4793 0.887015 92.5815 1.69786 86.7421 2.86395C85.0265 3.20842 83.3135 3.5773 81.6033 3.97057C71.6594 6.22257 61.7685 8.97405 51.6252 9.13767C50.8963 9.13767 50.1633 9.13767 49.4344 9.13767C37.3365 8.91807 24.9658 5.6671 13.4868 9.5941C8.2665 11.3897 3.26201 14.9205 1.16086 20.2771C-0.00780567 23.2611 -0.195117 26.5896 0.159147 29.7932Z" fill="#19B55A"/>
<path opacity="0.2" d="M15.3963 72.9636H25.8491C26.005 70.1058 26.9499 67.359 28.5667 65.063C30.1835 62.7671 32.4014 61.0228 34.9459 60.0458C33.0464 58.94 31.5487 57.1975 30.6885 55.0928C29.8282 52.9881 29.6544 50.6406 30.1942 48.4199C30.7341 46.1992 31.9571 44.2314 33.6706 42.8264C35.3842 41.4213 37.4909 40.6587 39.6593 40.6587C41.8276 40.6587 43.9344 41.4213 45.6479 42.8264C47.3614 44.2314 48.5844 46.1992 49.1243 48.4199C49.6642 50.6406 49.4903 52.9881 48.6301 55.0928C47.7699 57.1975 46.2721 58.94 44.3726 60.0458C46.9172 61.0228 49.135 62.7671 50.7519 65.063C52.3687 67.359 53.3135 70.1058 53.4695 72.9636H53.5591C53.789 70.1844 54.7651 67.5326 56.3724 65.3203C57.9797 63.1081 60.1513 61.4275 62.6315 60.4764C61.1879 59.6361 59.9687 58.4234 59.0873 56.9511C58.2058 55.4789 57.6907 53.7948 57.5899 52.0556C57.4891 50.3163 57.8058 48.5784 58.5106 47.0033C59.2154 45.4282 60.2854 44.0671 61.6211 43.0467C62.9568 42.0262 64.5149 41.3794 66.1504 41.1665C67.7859 40.9536 69.4458 41.1815 70.9756 41.829C72.5055 42.4764 73.8557 43.5224 74.9007 44.8697C75.9458 46.217 76.6516 47.8219 76.9527 49.5351C78.1502 48.5016 79.5033 47.688 80.9555 47.1281C79.056 46.0222 77.5582 44.2798 76.698 42.175C75.8378 40.0703 75.6639 37.7228 76.2038 35.5021C76.7437 33.2814 77.9667 31.3136 79.6802 29.9086C81.3937 28.5035 83.5005 27.741 85.6688 27.741C87.8372 27.741 89.9439 28.5035 91.6575 29.9086C93.371 31.3136 94.594 33.2814 95.1339 35.5021C95.6738 37.7228 95.4999 40.0703 94.6396 42.175C93.7794 44.2798 92.2817 46.0222 90.3822 47.1281C93.0591 48.1535 95.3719 50.0266 97.0056 52.4923C98.6393 54.958 99.5143 57.8964 99.5116 60.907V72.9636H103.991V63.4906C103.988 60.4799 104.863 57.5416 106.497 55.0759C108.131 52.6102 110.443 50.737 113.12 49.7116C111.221 48.6058 109.723 46.8633 108.863 44.7586C108.003 42.6538 107.829 40.3063 108.369 38.0857C108.908 35.865 110.131 33.8972 111.845 32.4921C113.558 31.0871 115.665 30.3245 117.834 30.3245C120.002 30.3245 122.109 31.0871 123.822 32.4921C125.536 33.8972 126.759 35.865 127.299 38.0857C127.839 40.3063 127.665 42.6538 126.804 44.7586C125.944 46.8633 124.446 48.6058 122.547 49.7116C124.317 50.3934 125.937 51.4489 127.31 52.8139C128.682 54.179 129.777 55.825 130.528 57.6517C132.166 55.1896 134.48 53.3196 137.157 52.2952C135.258 51.1893 133.76 49.4469 132.9 47.3421C132.04 45.2374 131.866 42.8899 132.406 40.6692C132.945 38.4485 134.168 36.4808 135.882 35.0757C137.596 33.6706 139.702 32.9081 141.871 32.9081C144.039 32.9081 146.146 33.6706 147.859 35.0757C149.573 36.4808 150.796 38.4485 151.336 40.6692C151.876 42.8899 151.702 45.2374 150.841 47.3421C149.981 49.4469 148.483 51.1893 146.584 52.2952C149.536 53.4308 152.036 55.5907 153.677 58.4225V56.6011C153.675 53.5904 154.55 50.6521 156.183 48.1864C157.817 45.7207 160.13 43.8475 162.807 42.8221C160.907 41.7163 159.41 39.9738 158.549 37.8691C157.689 35.7644 157.515 33.4169 158.055 31.1962C158.595 28.9755 159.818 27.0077 161.532 25.6027C163.245 24.1976 165.352 23.4351 167.52 23.4351C169.689 23.4351 171.795 24.1976 173.509 25.6027C175.222 27.0077 176.445 28.9755 176.985 31.1962C177.525 33.4169 177.351 35.7644 176.491 37.8691C175.631 39.9738 174.133 41.7163 172.234 42.8221C174.91 43.8475 177.223 45.7207 178.857 48.1864C180.491 50.6521 181.366 53.5904 181.363 56.6011V72.9636H186.249C187.011 71.1805 188.101 69.5763 189.457 68.2453C190.813 66.9142 192.407 65.8833 194.145 65.2129C192.245 64.1071 190.748 62.3646 189.887 60.2599C189.027 58.1552 188.853 55.8077 189.393 53.587C189.933 51.3663 191.156 49.3985 192.87 47.9935C194.583 46.5884 196.69 45.8258 198.858 45.8258C201.027 45.8258 203.133 46.5884 204.847 47.9935C206.56 49.3985 207.783 51.3663 208.323 53.587C208.863 55.8077 208.689 58.1552 207.829 60.2599C206.969 62.3646 205.471 64.1071 203.572 65.2129C204.537 65.5839 205.46 66.0677 206.324 66.6554C206.668 64.0096 207.69 61.5137 209.279 59.4379C210.868 57.3621 212.964 55.7854 215.34 54.8787C213.44 53.7729 211.942 52.0304 211.082 49.9257C210.222 47.8209 210.048 45.4734 210.588 43.2528C211.128 41.0321 212.351 39.0643 214.064 37.6592C215.778 36.2542 217.885 35.4916 220.053 35.4916C222.221 35.4916 224.328 36.2542 226.042 37.6592C227.755 39.0643 228.978 41.0321 229.518 43.2528C230.058 45.4734 229.884 47.8209 229.024 49.9257C228.164 52.0304 226.666 53.7729 224.766 54.8787C226.806 55.6666 228.643 56.9497 230.128 58.625C231.613 60.3002 232.706 62.3208 233.318 64.524C234.846 62.7007 236.78 61.3094 238.945 60.4764C237.046 59.3706 235.548 57.6281 234.688 55.5234C233.827 53.4186 233.654 51.0711 234.193 48.8505C234.733 46.6298 235.956 44.662 237.67 43.2569C239.383 41.8519 241.49 41.0893 243.658 41.0893C245.827 41.0893 247.934 41.8519 249.647 43.2569C251.361 44.662 252.584 46.6298 253.123 48.8505C253.663 51.0711 253.49 53.4186 252.629 55.5234C251.769 57.6281 250.271 59.3706 248.372 60.4764C249.866 61.0529 251.254 61.8978 252.476 62.9739C253.22 61.11 254.321 59.4288 255.708 58.0357C257.095 56.6427 258.74 55.5679 260.539 54.8787C258.639 53.7729 257.142 52.0304 256.281 49.9257C255.421 47.8209 255.247 45.4734 255.787 43.2528C256.327 41.0321 257.55 39.0643 259.264 37.6592C260.977 36.2542 263.084 35.4916 265.252 35.4916C267.421 35.4916 269.527 36.2542 271.241 37.6592C272.954 39.0643 274.177 41.0321 274.717 43.2528C275.257 45.4734 275.083 47.8209 274.223 49.9257C273.363 52.0304 271.865 53.7729 269.966 54.8787C272.643 55.9041 274.955 57.7773 276.589 60.243C278.223 62.7087 279.098 65.647 279.095 68.6577V72.9636H303.69C307.434 75.2356 311.436 76.9937 315.601 78.1953C327.751 81.7434 340.733 82.0319 352.42 87.0267C355.518 88.353 358.601 90.0882 360.612 92.9129C365.255 99.4278 362.591 108.565 362.078 116.703C361.778 121.862 362.393 127.035 363.89 131.955H35.3654C24.7781 122.154 16.4468 110.8 15.0583 96.2974C14.3335 88.5683 15.7587 80.6884 15.3963 72.9636Z" fill="black"/>
<path d="M404.716 33.1427V200.208L396.572 194.61V33.1427H391.686L389.65 189.013L381.913 182.984L387.207 30.9897" stroke="#E0E0E0" stroke-miterlimit="10"/>
<path d="M414.9 45.1992L381.917 47.1369" stroke="#E0E0E0" stroke-miterlimit="10"/>
<path d="M412.864 53.811L381.917 55.1028" stroke="#E0E0E0" stroke-miterlimit="10"/>
<path d="M412.864 64.1455L381.917 65.0067" stroke="#E0E0E0" stroke-miterlimit="10"/>
<path d="M412.864 73.6182L381.917 74.9099" stroke="#E0E0E0" stroke-miterlimit="10"/>
<path d="M412.864 84.3833H380.696" stroke="#E0E0E0" stroke-miterlimit="10"/>
<path d="M412.864 95.1477L379.881 93.856" stroke="#E0E0E0" stroke-miterlimit="10"/>
<path d="M412.864 105.051L379.881 103.329" stroke="#E0E0E0" stroke-miterlimit="10"/>
<path d="M412.864 115.816L379.881 113.233" stroke="#E0E0E0" stroke-miterlimit="10"/>
<path d="M413.679 125.289L378.66 121.845" stroke="#E0E0E0" stroke-miterlimit="10"/>
<path d="M413.679 136.054L378.66 130.457" stroke="#E0E0E0" stroke-miterlimit="10"/>
<path d="M413.679 148.541L377.438 141.652" stroke="#E0E0E0" stroke-miterlimit="10"/>
<path d="M413.679 162.751L377.438 151.556" stroke="#E0E0E0" stroke-miterlimit="10"/>
<path d="M414.493 177.391L376.216 161.459" stroke="#E0E0E0" stroke-miterlimit="10"/>
<path d="M414.493 190.739L376.216 170.932" stroke="#E0E0E0" stroke-miterlimit="10"/>
<path d="M372.955 32.7121L366.44 179.54H357.888L363.182 32.7121H353.816L347.708 179.54H338.343L343.636 32.7121H332.235L328.163 179.54H317.983L322.462 34.0039H311.875L309.432 179.54H300.066L302.916 32.7121H293.551L291.515 179.54H282.556L284.592 32.7121H274.005V179.54H263.418V32.7121H253.645L255.274 179.54H246.723L244.279 32.7121H234.507L237.764 179.54H229.213L225.141 32.7121H216.59L219.847 179.54H212.111L206.003 32.7121H197.859L204.374 179.54H196.23L187.271 32.7121H177.499L188.9 179.54H181.163L170.169 32.7121H162.432L173.834 179.54H165.283L154.288 30.9897H146.551L159.175 179.54H151.031L138 30.9897" stroke="#E0E0E0" stroke-miterlimit="10"/>
<path d="M119.676 33.1427L131.892 182.123L125.784 187.29L116.419 33.1427H109.903L116.419 192.888L107.053 199.347L103.392 30.9897" stroke="#E0E0E0" stroke-miterlimit="10"/>
<path d="M94.4338 49.9355H131.896" stroke="#E0E0E0" stroke-miterlimit="10"/>
<path d="M94.4338 60.7007H131.896" stroke="#E0E0E0" stroke-miterlimit="10"/>
<path d="M94.4338 72.7571L131.896 71.4653" stroke="#E0E0E0" stroke-miterlimit="10"/>
<path d="M94.4338 83.0914L133.525 80.9385" stroke="#E0E0E0" stroke-miterlimit="10"/>
<path d="M94.4338 94.7175L133.525 92.9951" stroke="#E0E0E0" stroke-miterlimit="10"/>
<path d="M94.4338 107.205L135.154 105.052" stroke="#E0E0E0" stroke-miterlimit="10"/>
<path d="M94.4338 119.261L135.154 114.955" stroke="#E0E0E0" stroke-miterlimit="10"/>
<path d="M94.4338 133.04L135.154 122.706" stroke="#E0E0E0" stroke-miterlimit="10"/>
<path d="M94.4338 145.097L136.783 130.026" stroke="#E0E0E0" stroke-miterlimit="10"/>
<path d="M94.4338 157.584L136.783 140.36" stroke="#E0E0E0" stroke-miterlimit="10"/>
<path d="M93.2122 169.64L135.37 150.931" stroke="#E0E0E0" stroke-miterlimit="10"/>
<path d="M93.2122 183.419L136.783 160.167" stroke="#E0E0E0" stroke-miterlimit="10"/>
<path d="M93.2122 195.906L138.004 169.64" stroke="#E0E0E0" stroke-miterlimit="10"/>
<path d="M381.917 45.1992L131.896 47.3522" stroke="#E0E0E0" stroke-miterlimit="10"/>
<path d="M381.714 52.9497L131.693 55.1027" stroke="#E0E0E0" stroke-miterlimit="10"/>
<path d="M381.51 60.7007L131.489 62.8536" stroke="#E0E0E0" stroke-miterlimit="10"/>
<path d="M381.306 68.4512L131.285 70.6041" stroke="#E0E0E0" stroke-miterlimit="10"/>
<path d="M381.103 76.2017L131.082 78.3546" stroke="#E0E0E0" stroke-miterlimit="10"/>
<path d="M380.899 83.9526L134.136 86.1056" stroke="#E0E0E0" stroke-miterlimit="10"/>
<path d="M380.696 91.7031L133.932 93.8561" stroke="#E0E0E0" stroke-miterlimit="10"/>
<path d="M380.492 99.4536L133.729 101.607" stroke="#E0E0E0" stroke-miterlimit="10"/>
<path d="M380.288 107.205L133.525 109.358" stroke="#E0E0E0" stroke-miterlimit="10"/>
<path d="M380.085 114.955L135.765 117.108" stroke="#E0E0E0" stroke-miterlimit="10"/>
<path d="M379.881 122.706L135.561 124.859" stroke="#E0E0E0" stroke-miterlimit="10"/>
<path d="M379.678 130.457L135.357 132.61" stroke="#E0E0E0" stroke-miterlimit="10"/>
<path d="M379.474 138.207L136.783 140.36" stroke="#E0E0E0" stroke-miterlimit="10"/>
<path d="M379.27 145.958L136.579 148.111" stroke="#E0E0E0" stroke-miterlimit="10"/>
<path d="M379.067 153.708L137.597 155.861" stroke="#E0E0E0" stroke-miterlimit="10"/>
<path d="M378.863 161.459L137.393 163.612" stroke="#E0E0E0" stroke-miterlimit="10"/>
<path d="M378.66 169.21L137.19 171.363" stroke="#E0E0E0" stroke-miterlimit="10"/>
<path d="M414.489 207.528L377.434 179.54H136.779L94.4338 207.528" stroke="#E0E0E0" stroke-width="3" stroke-miterlimit="10"/>
<path d="M416.79 177.244C416.79 177.244 417.73 147.852 432.764 131.253C439.115 124.33 443.17 115.416 444.321 105.848C444.834 101.303 444.953 96.7184 444.675 92.1509" stroke="#535461" stroke-width="2" stroke-miterlimit="10"/>
<path d="M454.089 81.6318C453.059 84.9129 444.459 92.4569 444.459 92.4569C444.459 92.4569 441.824 80.9687 442.855 77.6876C443.365 76.1332 444.433 74.8536 445.829 74.1256C447.224 73.3976 448.834 73.2798 450.311 73.7976C451.788 74.3153 453.013 75.4271 453.721 76.8924C454.429 78.3577 454.562 80.0587 454.093 81.6275L454.089 81.6318Z" fill="#19B55A"/>
<path d="M457.677 103.066C455.128 105.219 444.027 106.619 444.027 106.619C444.027 106.619 447.721 95.4622 450.27 93.3007C450.874 92.7654 451.573 92.3631 452.326 92.1173C453.079 91.8715 453.871 91.7872 454.656 91.8693C455.44 91.9515 456.201 92.1984 456.894 92.5956C457.587 92.9928 458.198 93.5324 458.691 94.1825C459.184 94.8327 459.549 95.5805 459.766 96.382C459.982 97.1835 460.045 98.0225 459.95 98.85C459.856 99.6774 459.606 100.477 459.216 101.201C458.825 101.925 458.302 102.559 457.677 103.066Z" fill="#19B55A"/>
<path d="M447.529 133.988C444.296 134.491 434.051 129.768 434.051 129.768C434.051 129.768 442.566 122.107 445.799 121.586C447.334 121.385 448.882 121.826 450.113 122.816C451.345 123.806 452.16 125.266 452.387 126.884C452.613 128.502 452.231 130.149 451.323 131.474C450.416 132.798 449.054 133.694 447.529 133.97V133.988Z" fill="#19B55A"/>
<path d="M434.87 155.551C431.763 156.628 420.911 153.799 420.911 153.799C420.911 153.799 428.077 144.731 431.184 143.65C431.928 143.375 432.715 143.26 433.501 143.311C434.287 143.362 435.055 143.579 435.761 143.947C436.467 144.316 437.096 144.83 437.612 145.459C438.127 146.089 438.519 146.82 438.764 147.611C439.009 148.403 439.103 149.237 439.039 150.067C438.975 150.897 438.755 151.705 438.393 152.444C438.03 153.183 437.532 153.838 436.927 154.371C436.322 154.904 435.622 155.304 434.87 155.547V155.551Z" fill="#19B55A"/>
<path d="M432.027 103.105C433.538 106.171 443.164 112.178 443.164 112.178C443.164 112.178 444.04 100.397 442.533 97.3269C442.174 96.5975 441.683 95.9499 441.088 95.4212C440.492 94.8925 439.804 94.493 439.062 94.2455C438.321 93.998 437.541 93.9073 436.766 93.9787C435.991 94.0501 435.238 94.2822 434.548 94.6616C433.858 95.041 433.246 95.5604 432.746 96.1901C432.246 96.8198 431.868 97.5474 431.634 98.3315C431.4 99.1156 431.314 99.9408 431.382 100.76C431.449 101.579 431.668 102.376 432.027 103.105Z" fill="#19B55A"/>
<path d="M417.527 128.536C419.836 130.986 430.72 133.669 430.72 133.669C430.72 133.669 428.224 122.15 425.915 119.7C424.801 118.555 423.306 117.918 421.752 117.928C420.198 117.938 418.71 118.594 417.609 119.753C416.508 120.913 415.883 122.484 415.867 124.127C415.852 125.77 416.448 127.353 417.527 128.536Z" fill="#19B55A"/>
<path d="M406.638 155.289C408.52 158.113 418.822 162.703 418.822 162.703C418.822 162.703 418.203 150.901 416.318 148.063C415.873 147.383 415.305 146.802 414.647 146.355C413.989 145.908 413.254 145.604 412.484 145.459C411.714 145.314 410.925 145.332 410.161 145.511C409.398 145.691 408.676 146.028 408.036 146.505C407.397 146.981 406.853 147.587 406.437 148.287C406.02 148.986 405.738 149.767 405.608 150.582C405.478 151.398 405.502 152.232 405.679 153.038C405.856 153.844 406.182 154.604 406.638 155.276V155.289Z" fill="#19B55A"/>
<path d="M422.898 203.511C422.898 203.511 423.838 174.118 438.872 157.519C445.223 150.596 449.278 141.682 450.429 132.114C450.942 127.569 451.061 122.985 450.783 118.417" stroke="#535461" stroke-width="2" stroke-miterlimit="10"/>
<path d="M460.197 107.898C459.167 111.179 450.567 118.723 450.567 118.723C450.567 118.723 447.932 107.235 448.963 103.954C449.473 102.399 450.541 101.12 451.937 100.392C453.332 99.6638 454.942 99.5459 456.419 100.064C457.896 100.581 459.121 101.693 459.829 103.158C460.537 104.624 460.67 106.325 460.201 107.894L460.197 107.898Z" fill="#19B55A"/>
<path d="M463.785 129.333C461.236 131.486 450.135 132.885 450.135 132.885C450.135 132.885 453.829 121.728 456.378 119.567C456.982 119.032 457.681 118.629 458.434 118.383C459.187 118.138 459.979 118.053 460.764 118.135C461.548 118.218 462.309 118.465 463.002 118.862C463.695 119.259 464.306 119.798 464.799 120.449C465.292 121.099 465.657 121.847 465.874 122.648C466.09 123.45 466.153 124.289 466.058 125.116C465.964 125.944 465.714 126.743 465.324 127.467C464.933 128.191 464.41 128.825 463.785 129.333Z" fill="#19B55A"/>
<path d="M453.637 160.254C450.404 160.757 440.159 156.034 440.159 156.034C440.159 156.034 448.674 148.374 451.907 147.853C453.442 147.651 454.99 148.092 456.221 149.082C457.453 150.072 458.269 151.532 458.495 153.15C458.721 154.768 458.339 156.416 457.431 157.74C456.524 159.064 455.162 159.96 453.637 160.236V160.254Z" fill="#19B55A"/>
<path d="M440.978 181.817C437.871 182.894 427.019 180.065 427.019 180.065C427.019 180.065 434.185 170.997 437.292 169.916C438.036 169.641 438.823 169.526 439.609 169.577C440.395 169.628 441.163 169.845 441.869 170.214C442.575 170.582 443.204 171.096 443.72 171.726C444.235 172.355 444.627 173.086 444.872 173.877C445.117 174.669 445.211 175.504 445.147 176.333C445.083 177.163 444.863 177.971 444.501 178.71C444.138 179.449 443.64 180.104 443.035 180.637C442.43 181.17 441.73 181.57 440.978 181.813V181.817Z" fill="#19B55A"/>
<path d="M438.135 129.372C439.646 132.437 449.272 138.444 449.272 138.444C449.272 138.444 450.148 126.663 448.641 123.593C447.916 122.12 446.668 121.011 445.17 120.512C443.673 120.012 442.049 120.161 440.656 120.928C439.263 121.694 438.214 123.014 437.742 124.598C437.269 126.181 437.411 127.898 438.135 129.372Z" fill="#19B55A"/>
<path d="M423.635 154.802C425.944 157.252 436.828 159.935 436.828 159.935C436.828 159.935 434.332 148.416 432.023 145.966C430.909 144.821 429.414 144.185 427.86 144.194C426.306 144.204 424.818 144.86 423.717 146.019C422.616 147.179 421.991 148.75 421.975 150.393C421.96 152.036 422.556 153.62 423.635 154.802Z" fill="#19B55A"/>
<path d="M412.746 181.555C414.628 184.379 424.93 188.97 424.93 188.97C424.93 188.97 424.311 177.167 422.425 174.329C421.981 173.649 421.413 173.069 420.755 172.622C420.097 172.174 419.362 171.87 418.592 171.725C417.822 171.58 417.033 171.598 416.269 171.777C415.506 171.957 414.784 172.295 414.144 172.771C413.505 173.247 412.961 173.853 412.544 174.553C412.128 175.253 411.846 176.033 411.716 176.848C411.586 177.664 411.61 178.498 411.787 179.304C411.964 180.11 412.29 180.87 412.746 181.542V181.555Z" fill="#19B55A"/>
<path d="M88.5253 46.418C88.7249 38.086 94.1813 30.7659 101.881 28.979L102.101 28.9316C102.412 28.8661 102.729 28.8343 103.046 28.8369H407.795C410.045 28.8175 412.263 29.415 414.23 30.571C416.197 31.7271 417.848 33.4023 419.021 35.4336L419.099 35.5756C419.547 36.4068 419.788 37.3447 419.799 38.3013L422.629 207.524H412.856L409.599 42.1766C409.599 42.1766 409.599 37.4401 405.527 37.0095C404.904 36.9449 397.346 36.8976 385 36.8674L377.841 179.97H373.769L381.73 36.8631C327.45 36.7512 194.593 36.8933 132.931 36.9708L140.838 179.109H136.766L129.665 36.9751L106.194 37.0052C104.473 37.0064 102.782 37.484 101.29 38.3905C99.7972 39.297 98.5553 40.6008 97.6873 42.1723L94.4297 207.52H84.6569L88.5253 46.418Z" fill="#E0E0E0"/>
<path d="M84.604 211.012C84.604 211.012 83.2847 188.251 93.7375 174.265C98.1577 168.429 100.668 161.234 100.892 153.76C100.971 150.209 100.742 146.657 100.208 143.15" stroke="#535461" stroke-width="2" stroke-miterlimit="10"/>
<path d="M106.748 134.306C106.182 136.92 100.065 143.413 100.065 143.413C100.065 143.413 97.215 134.75 97.7973 132.14C97.931 131.518 98.1792 130.93 98.5279 130.41C98.8765 129.889 99.3186 129.446 99.8291 129.106C100.34 128.766 100.908 128.536 101.503 128.429C102.098 128.321 102.706 128.339 103.295 128.48C103.883 128.622 104.439 128.884 104.931 129.253C105.423 129.621 105.842 130.089 106.164 130.629C106.485 131.168 106.703 131.77 106.804 132.399C106.906 133.027 106.889 133.671 106.756 134.293L106.748 134.306Z" fill="#19B55A"/>
<path d="M111.007 150.574C109.187 152.442 100.717 154.38 100.717 154.38C100.717 154.38 102.79 145.48 104.61 143.615C105.042 143.171 105.553 142.821 106.113 142.586C106.673 142.35 107.272 142.234 107.875 142.243C108.477 142.252 109.072 142.387 109.626 142.639C110.179 142.892 110.68 143.257 111.101 143.714C111.521 144.171 111.851 144.712 112.074 145.304C112.297 145.896 112.407 146.529 112.398 147.167C112.389 147.804 112.262 148.433 112.023 149.019C111.785 149.604 111.439 150.134 111.007 150.578V150.574Z" fill="#19B55A"/>
<path d="M105.326 175.23C102.883 175.871 94.6293 173.021 94.6293 173.021C94.6293 173.021 100.66 166.445 103.128 165.804C104.31 165.496 105.559 165.696 106.601 166.362C107.643 167.028 108.392 168.104 108.684 169.354C108.975 170.604 108.785 171.925 108.156 173.027C107.526 174.129 106.508 174.921 105.326 175.23Z" fill="#19B55A"/>
<path d="M97.0521 192.862C94.727 193.934 86.1555 192.595 86.1555 192.595C86.1555 192.595 91.0419 185.034 93.3792 183.983C93.9338 183.713 94.5339 183.563 95.1442 183.541C95.7544 183.52 96.3627 183.627 96.9332 183.857C97.5038 184.087 98.0252 184.435 98.4669 184.881C98.9086 185.327 99.2618 185.861 99.5056 186.453C99.7495 187.045 99.8792 187.683 99.8871 188.328C99.895 188.974 99.781 189.615 99.5518 190.213C99.3225 190.812 98.9826 191.356 98.552 191.814C98.1214 192.271 97.6087 192.634 97.044 192.879L97.0521 192.862Z" fill="#19B55A"/>
<path d="M91.2128 152.623C92.5892 154.875 100.44 158.759 100.44 158.759C100.44 158.759 100.297 149.596 98.9171 147.344C98.2551 146.264 97.2143 145.506 96.0238 145.237C94.8332 144.968 93.5905 145.21 92.5688 145.91C91.5472 146.61 90.8304 147.711 90.5761 148.97C90.3218 150.229 90.5508 151.543 91.2128 152.623Z" fill="#19B55A"/>
<path d="M81.7862 173.356C83.7367 175.079 92.3286 176.293 92.3286 176.293C92.3286 176.293 89.6003 167.595 87.6458 165.881C87.1816 165.474 86.6462 165.168 86.0702 164.98C85.4941 164.792 84.8887 164.726 84.2884 164.785C83.6881 164.845 83.1048 165.028 82.5717 165.326C82.0386 165.624 81.5662 166.03 81.1815 166.521C80.7967 167.011 80.5072 167.578 80.3293 168.187C80.1515 168.796 80.0889 169.436 80.145 170.071C80.2012 170.706 80.375 171.323 80.6566 171.886C80.9382 172.45 81.322 172.949 81.7862 173.356Z" fill="#19B55A"/>
<path d="M75.2424 194.856C76.8916 196.893 85.1618 199.635 85.1618 199.635C85.1618 199.635 83.8629 190.593 82.2096 188.539C81.4169 187.562 80.2895 186.957 79.0753 186.858C77.8611 186.76 76.6596 187.176 75.7351 188.014C74.8107 188.852 74.239 190.044 74.1459 191.328C74.0527 192.612 74.4457 193.883 75.2384 194.86L75.2424 194.856Z" fill="#19B55A"/>
<path opacity="0.5" d="M106.748 134.306C106.182 136.92 100.065 143.413 100.065 143.413C100.065 143.413 97.215 134.75 97.7973 132.14C97.931 131.518 98.1792 130.93 98.5279 130.41C98.8765 129.889 99.3186 129.446 99.8291 129.106C100.34 128.766 100.908 128.536 101.503 128.429C102.098 128.321 102.706 128.339 103.295 128.48C103.883 128.622 104.439 128.884 104.931 129.253C105.423 129.621 105.842 130.089 106.164 130.629C106.485 131.168 106.703 131.77 106.804 132.399C106.906 133.027 106.889 133.671 106.756 134.293L106.748 134.306Z" fill="white"/>
<path opacity="0.5" d="M111.007 150.574C109.187 152.442 100.717 154.38 100.717 154.38C100.717 154.38 102.79 145.48 104.61 143.615C105.042 143.171 105.553 142.821 106.113 142.586C106.673 142.35 107.272 142.234 107.875 142.243C108.477 142.252 109.072 142.387 109.626 142.639C110.179 142.892 110.68 143.257 111.101 143.714C111.521 144.171 111.851 144.712 112.074 145.304C112.297 145.896 112.407 146.529 112.398 147.167C112.389 147.804 112.262 148.433 112.023 149.019C111.785 149.604 111.439 150.134 111.007 150.578V150.574Z" fill="white"/>
<path opacity="0.5" d="M105.326 175.23C102.883 175.871 94.6293 173.021 94.6293 173.021C94.6293 173.021 100.66 166.445 103.128 165.804C104.31 165.496 105.559 165.696 106.601 166.362C107.643 167.028 108.392 168.104 108.684 169.354C108.975 170.604 108.785 171.925 108.156 173.027C107.526 174.129 106.508 174.921 105.326 175.23Z" fill="white"/>
<path opacity="0.5" d="M97.0521 192.862C94.727 193.934 86.1555 192.595 86.1555 192.595C86.1555 192.595 91.0419 185.034 93.3792 183.983C93.9338 183.713 94.5339 183.563 95.1442 183.541C95.7544 183.52 96.3627 183.627 96.9332 183.857C97.5038 184.087 98.0252 184.435 98.4669 184.881C98.9086 185.327 99.2618 185.861 99.5056 186.453C99.7495 187.045 99.8792 187.683 99.8871 188.328C99.895 188.974 99.781 189.615 99.5518 190.213C99.3225 190.812 98.9826 191.356 98.552 191.814C98.1214 192.271 97.6087 192.634 97.044 192.879L97.0521 192.862Z" fill="white"/>
<path opacity="0.5" d="M91.2128 152.623C92.5892 154.875 100.44 158.759 100.44 158.759C100.44 158.759 100.297 149.596 98.9171 147.344C98.2551 146.264 97.2143 145.506 96.0238 145.237C94.8332 144.968 93.5905 145.21 92.5688 145.91C91.5472 146.61 90.8304 147.711 90.5761 148.97C90.3218 150.229 90.5508 151.543 91.2128 152.623Z" fill="white"/>
<path opacity="0.5" d="M81.7862 173.356C83.7367 175.079 92.3286 176.293 92.3286 176.293C92.3286 176.293 89.6003 167.595 87.6458 165.881C87.1816 165.474 86.6462 165.168 86.0702 164.98C85.4941 164.792 84.8887 164.726 84.2884 164.785C83.6881 164.845 83.1048 165.028 82.5717 165.326C82.0386 165.624 81.5662 166.03 81.1815 166.521C80.7967 167.011 80.5072 167.578 80.3293 168.187C80.1515 168.796 80.0889 169.436 80.145 170.071C80.2012 170.706 80.375 171.323 80.6566 171.886C80.9382 172.45 81.322 172.949 81.7862 173.356Z" fill="white"/>
<path opacity="0.5" d="M75.2424 194.856C76.8916 196.893 85.1618 199.635 85.1618 199.635C85.1618 199.635 83.8629 190.593 82.2096 188.539C81.4169 187.562 80.2895 186.957 79.0753 186.858C77.8611 186.76 76.6596 187.176 75.7351 188.014C74.8107 188.852 74.239 190.044 74.1459 191.328C74.0527 192.612 74.4457 193.883 75.2384 194.86L75.2424 194.856Z" fill="white"/>
<g opacity="0.1">
<path d="M155.63 123.492C155.583 123.429 155.559 123.386 155.559 123.386L155.63 123.492Z" fill="url(#paint0_linear_465_110)"/>
</g>
<path d="M222.958 129.372C222.881 132.114 224.49 133.144 224.49 133.144L239.515 147.215C245.314 149.437 246.03 161.093 246.03 161.093C246.6 162.17 246.845 164.039 246.845 166.26C246.776 173.15 244.935 182.752 244.935 182.752L244.988 182.843L244.935 183.122L244.988 183.213L244.935 183.493C245.223 183.984 245.534 184.46 245.868 184.918C244.239 188.445 241.205 194.12 239.894 195.33C238.082 196.996 234.458 209.393 234.458 209.393L234.576 209.363L234.458 209.763H234.535C233.656 211.559 232.76 213.875 232.568 216.162C232.439 217.661 232.145 219.139 231.693 220.567C231.159 222.225 231.112 224.016 231.559 225.704C231.917 227.053 232.155 228.436 232.267 229.833C232.494 232.525 233.12 235.162 234.12 237.648C235.777 241.812 237.972 247.5 238.086 248.646C238.147 249.266 238.29 250.178 238.452 251.121L238.359 251.147L234.462 260.491C234.462 260.491 233.375 263.075 231.204 263.075C230.993 263.073 230.783 263.119 230.59 263.21C230.396 263.3 230.223 263.433 230.082 263.6C229.941 263.766 229.835 263.962 229.77 264.175C229.706 264.389 229.686 264.614 229.71 264.836C229.681 265.096 229.713 265.359 229.803 265.602V265.628C229.803 265.671 229.84 265.714 229.856 265.757L229.893 265.831C229.913 265.874 229.938 265.912 229.966 265.955L230.015 266.029L230.105 266.145L230.166 266.218L230.272 266.33L230.345 266.403L230.467 266.507L230.557 266.575L230.699 266.67L230.805 266.739L230.964 266.825L231.086 266.89L231.261 266.967L231.4 267.028L231.595 267.096L231.75 267.148L231.97 267.204L232.145 267.247L232.385 267.29L232.577 267.325L232.841 267.355L233.049 267.381H233.342H233.562H234.12H234.507H234.722C234.931 267.381 235.147 267.362 235.37 267.325C242.439 266.584 247.692 260.866 247.692 260.866V260.758V260.65V260.543L247.716 260.513C247.716 260.513 247.26 253.068 244.674 251.384C244.417 250.001 244.281 248.596 244.267 247.186C244.267 242.019 245.717 236.822 241.73 228.309C241.73 228.309 241.547 226.087 243.001 222.758C243.853 220.975 244.796 219.241 245.827 217.565L246.006 217.544L245.717 217.949C245.717 217.949 250.428 217.578 250.791 214.246C250.825 213.968 250.886 213.696 250.974 213.432C252.065 210.082 257.334 205.332 259.672 204.992C262.208 204.622 267.282 210.913 269.277 215.357C269.391 215.611 269.51 215.852 269.628 216.071C271.574 219.693 273.989 218.874 273.989 218.874C273.903 218.767 273.83 218.663 273.753 218.556C273.832 218.545 273.911 218.528 273.989 218.504C273.775 218.23 273.578 217.943 273.398 217.643C275.21 219.718 277.136 221.63 277.975 222.745C279.787 225.152 278.883 226.815 278.883 227.555C278.883 230.892 274.714 240.693 275.801 246.071C276.338 248.727 275.723 251.836 274.962 254.299H274.803C271.721 255.531 271.362 259.949 271.387 262.17C271.387 262.239 271.387 262.308 271.387 262.373C271.387 262.485 271.387 262.592 271.387 262.696V262.765C271.387 262.848 271.387 262.928 271.387 263.006V263.062C271.387 263.148 271.387 263.23 271.387 263.303C271.387 263.38 271.387 263.454 271.387 263.514V263.54V263.669V263.703V263.772V263.82C271.387 263.82 280.085 267.889 287.516 268.987C287.777 269.025 288.025 269.056 288.265 269.077H288.485L288.953 269.107H289.589H289.792C289.935 269.107 290.069 269.107 290.199 269.073H290.33C290.498 269.05 290.657 269.021 290.806 268.987L290.904 268.961C291.018 268.931 291.124 268.905 291.226 268.87L291.36 268.823L291.6 268.724L291.722 268.664C291.796 268.625 291.865 268.586 291.934 268.543L292.044 268.453C292.126 268.396 292.205 268.334 292.28 268.268C292.354 268.2 292.424 268.126 292.488 268.048L292.541 267.979C292.581 267.927 292.62 267.872 292.655 267.816L292.704 267.729C292.734 267.675 292.759 267.62 292.781 267.566L292.818 267.48C292.84 267.418 292.859 267.354 292.875 267.29V267.226C292.892 267.142 292.905 267.057 292.911 266.972C292.911 266.972 292.911 266.941 292.911 266.924C292.915 266.855 292.915 266.786 292.911 266.718C292.911 266.692 292.911 266.662 292.911 266.636C293.017 265.499 292.166 264.366 291.315 264.539C289.503 264.909 287.145 262.687 287.145 262.687L282.19 254.127C282.112 252.125 282.324 249.58 283.521 247.513C285.879 243.444 288.778 234.746 288.778 234.746C288.778 234.746 288.416 229.381 289.866 226.789C291.315 224.197 289.866 220.127 289.866 220.127L285.431 211.085C285.94 211.085 286.246 211.085 286.246 211.085L286.087 210.715H286.246C286.246 210.715 280.809 197.948 278.635 196.466C277.084 195.411 274.893 189.469 273.749 186.132C274.205 185.878 274.457 185.702 274.457 185.702C274.457 185.702 275.728 169.602 275.728 159.436C275.728 149.269 282.243 145.187 282.243 145.187L297.338 135.74C301.324 134.074 301.87 129.819 301.87 129.819L301.825 129.699C301.858 129.54 301.87 129.449 301.87 129.449L301.825 129.329C301.858 129.169 301.87 129.079 301.87 129.079L294.622 109.465C294.622 109.526 294.577 109.577 294.556 109.633C294.043 106.253 292.459 100.961 287.553 100.591C280.304 100.035 277.78 103.924 279.217 104.294C280.655 104.664 286.828 107.256 286.828 107.256L289.271 111.42C289.112 111.364 289.023 111.325 289.023 111.325C289.161 111.382 289.283 111.475 289.377 111.597L289.54 111.872C289.222 111.778 289.027 111.696 289.027 111.696C289.071 111.715 289.113 111.74 289.153 111.769C289.188 111.789 289.223 111.812 289.255 111.838C289.288 111.869 289.319 111.902 289.348 111.937C289.381 111.971 289.413 112.007 289.442 112.045C289.475 112.088 289.503 112.135 289.536 112.182L289.585 112.26C289.397 112.207 289.212 112.143 289.031 112.07C290.928 112.716 291.722 124.889 291.881 128.002L282.495 132.424C282.495 132.424 273.073 132.424 269.086 134.831C265.588 136.941 263.902 135.206 263.544 134.75C263.788 135.08 264.004 135.398 264.192 135.706L264.09 135.632L263.996 135.564L263.919 135.499L263.833 135.421L263.805 135.396C262.981 133.765 262.438 131.992 262.2 130.16C262.645 129.038 262.863 127.83 262.841 126.614C262.818 125.398 262.556 124.2 262.07 123.098C262.223 123.212 262.39 123.303 262.567 123.369C262.159 122.563 261.884 121.689 261.752 120.786C261.663 119.774 261.936 118.697 261.528 117.771C261.485 117.678 261.436 117.587 261.382 117.5C261.382 117.47 261.382 117.436 261.349 117.401C260.942 116.462 259.944 115.946 259.313 115.128C258.906 114.576 258.674 113.905 258.283 113.336C257.788 112.667 257.102 112.183 256.328 111.955C255.553 111.727 254.73 111.767 253.979 112.07C253.384 112.324 252.831 112.751 252.187 112.764C251.854 112.747 251.525 112.686 251.206 112.583C249.211 112.145 247.133 112.556 245.424 113.728C243.757 114.892 242.44 116.535 241.629 118.465C241.189 119.413 240.903 120.431 240.782 121.479C240.734 122.577 240.75 123.677 240.83 124.773C240.867 126.577 240.615 128.472 241.344 130.112C241.388 130.216 241.445 130.306 241.494 130.405C241.494 130.431 241.494 130.457 241.523 130.483C242.215 132.046 243.665 133.066 245.053 134.052L246.849 135.305L247.052 135.447C246.538 135.393 246.021 135.381 245.505 135.413C242.785 135.598 237.361 132.829 237.361 132.829L231.701 127.412L234.462 115.433L234.356 115.515L234.462 115.063L234.356 115.145L234.462 114.693C234.409 114.736 234.36 114.775 234.307 114.813L237.178 109.879C237.178 109.879 243.339 107.295 244.788 106.916C246.238 106.537 243.701 102.662 236.453 103.213C231.119 103.622 229.71 109.84 229.339 113.117C229.026 112.751 228.842 112.484 228.842 112.484L223.761 125.195C223.23 126.389 222.952 127.691 222.946 129.01C222.954 129.135 222.954 129.26 222.958 129.372ZM249.504 135.882C249.908 135.74 250.269 135.488 250.55 135.15C251.006 135.333 251.474 135.477 251.951 135.581C251.822 136.051 251.64 136.503 251.41 136.928C251.34 136.64 251.308 136.463 251.308 136.463C250.717 136.233 250.115 136.038 249.504 135.878V135.882ZM246.438 216.446C246.845 215.753 247.252 215.077 247.659 214.439C247.309 215.12 246.845 215.86 246.438 216.446Z" fill="url(#paint1_linear_465_110)"/>
<path d="M283.444 208.742L288.636 219.722C288.636 219.722 290.02 223.748 288.636 226.31C287.251 228.872 287.597 234.182 287.597 234.182C287.597 234.182 284.828 242.793 282.577 246.811C280.325 250.828 281.709 256.714 281.709 256.714L272.71 257.812C272.71 257.812 276.171 250.673 275.153 245.364C274.135 240.055 278.097 230.362 278.097 227.06C278.097 226.328 278.965 224.678 277.23 222.302C275.495 219.925 268.923 213.883 269.086 210.404L283.444 208.742Z" fill="#F7BBC3"/>
<path d="M237.577 206.18C237.577 206.18 234.254 211.046 233.867 215.782C233.751 217.261 233.478 218.721 233.053 220.136C232.542 221.78 232.496 223.546 232.923 225.217C233.265 226.554 233.492 227.922 233.599 229.303C233.812 231.966 234.408 234.58 235.366 237.054C236.95 241.174 239.031 246.798 239.153 247.93C239.328 249.76 240.191 254.152 240.191 254.152L247.114 256.9C247.114 256.9 245.037 251.59 245.037 246.466C245.037 241.342 246.421 236.218 242.594 227.796C242.594 227.796 242.419 225.6 243.815 222.306C245.212 219.012 250.567 210.409 250.567 210.409L237.577 206.18Z" fill="#F7BBC3"/>
<path opacity="0.1" d="M248.767 212.708C249.337 213.363 246.401 217.531 246.401 217.531C246.401 217.531 250.9 217.165 251.247 213.871C251.279 213.597 251.338 213.327 251.422 213.065C252.464 209.754 257.497 205.056 259.729 204.721C262.172 204.355 266.997 210.577 268.903 214.969C269.013 215.223 269.123 215.455 269.237 215.675C271.098 219.257 273.402 218.448 273.402 218.448C272.181 216.855 271.928 215.593 272.311 214.572C273.826 210.624 285.17 210.74 285.17 210.74C285.17 210.74 279.979 198.111 277.902 196.647C275.825 195.183 272.535 184.199 272.535 184.199C272.535 184.199 247.781 181.271 247.61 182.549C247.439 183.828 242.59 193.9 240.859 195.545C239.128 197.189 235.671 209.461 235.671 209.461C241.555 207.631 248.046 212.114 248.738 212.665L248.767 212.708Z" fill="black"/>
<path d="M248.778 169.796C249.348 170.451 246.412 174.619 246.412 174.619C246.412 174.619 250.912 174.253 251.258 170.959C251.29 170.685 251.349 170.415 251.433 170.154C252.475 166.843 257.508 162.145 259.74 161.809C262.183 161.443 267.008 167.665 268.914 172.057C269.024 172.311 269.134 172.544 269.248 172.763C271.109 176.346 273.413 175.536 273.413 175.536C272.192 173.943 271.939 172.681 272.322 171.661C273.837 167.712 285.181 167.829 285.181 167.829C285.181 167.829 279.99 155.199 277.913 153.735C275.836 152.271 272.546 141.287 272.546 141.287C272.546 141.287 247.792 138.359 247.621 139.638C247.45 140.917 242.601 150.988 240.87 152.633C239.139 154.278 235.678 166.545 235.678 166.545C241.562 164.715 248.053 169.198 248.745 169.749L248.778 169.796Z" fill="#565171"/>
<path opacity="0.1" d="M281.282 253.313L286.042 261.826C286.042 261.826 288.294 264.022 290.024 263.656C291.755 263.29 293.486 268.78 286.388 267.682C279.29 266.584 270.984 262.558 270.984 262.558C270.984 262.558 270.206 255.143 274.184 253.515L281.282 253.313Z" fill="black"/>
<path opacity="0.1" d="M239.393 250.368L235.671 259.613C235.671 259.613 234.633 262.196 232.556 262.196C230.479 262.196 229.787 266.773 236.539 266.041C243.29 265.309 248.311 259.634 248.311 259.634C248.311 259.634 247.79 250.85 244.674 250.299C242.927 249.948 241.131 249.971 239.393 250.368Z" fill="black"/>
<path d="M281.282 253.679L286.042 262.192C286.042 262.192 288.294 264.388 290.024 264.022C291.755 263.656 293.486 269.146 286.388 268.048C279.29 266.95 270.984 262.924 270.984 262.924C270.984 262.924 270.206 255.509 274.184 253.881L281.282 253.679Z" fill="#131A15"/>
<path d="M239.393 250.751L235.671 259.996C235.671 259.996 234.633 262.579 232.556 262.579C230.479 262.579 229.787 267.157 236.539 266.425C243.29 265.693 248.311 260.017 248.311 260.017C248.311 260.017 247.79 251.233 244.674 250.682C242.927 250.331 241.131 250.354 239.393 250.751Z" fill="#131A15"/>
<g opacity="0.1">
<path d="M248.474 182.205C248.298 183.497 243.453 193.556 241.722 195.2C240.134 196.712 237.084 207.179 236.596 208.876C236.282 208.941 235.973 209.014 235.663 209.108C235.663 209.108 239.124 196.845 240.855 195.196C242.585 193.547 247.431 183.48 247.606 182.201C247.639 181.947 248.653 181.856 250.245 181.882C249.17 181.904 248.506 181.998 248.474 182.205Z" fill="black"/>
<path d="M260.596 204.35C263.039 203.984 267.864 210.206 269.77 214.598C269.88 214.853 269.99 215.085 270.104 215.305C271.179 217.371 272.397 217.974 273.24 218.116C272.682 218.224 270.796 218.314 269.237 215.305C269.123 215.085 269.013 214.853 268.903 214.598C267.156 210.568 262.937 205.005 260.38 204.393L260.596 204.35Z" fill="black"/>
<path d="M248.767 212.342L248.738 212.312C248.18 211.882 243.852 208.867 239.108 208.682C244.178 208.497 249.011 211.843 249.606 212.312L249.634 212.342C250.135 212.919 247.928 216.218 247.386 216.993C247.063 217.07 246.735 217.126 246.405 217.161C246.405 217.161 249.337 212.997 248.767 212.342Z" fill="black"/>
</g>
<path d="M293.31 113.199C293.31 113.199 293.31 102.033 286.388 101.482C279.466 100.931 277.022 104.776 278.427 105.142C279.832 105.508 285.696 108.07 285.696 108.07L289.503 114.843L293.31 113.199Z" fill="#F7BBC3"/>
<path d="M230.65 115.761C230.65 115.761 230.65 104.595 237.573 104.044C244.495 103.493 246.938 107.338 245.534 107.704C244.129 108.07 238.265 110.632 238.265 110.632L234.458 117.405L230.65 115.761Z" fill="#F7BBC3"/>
<path d="M261.98 127.292C261.98 127.292 261.459 134.612 265.788 138.823C270.116 143.034 255.75 148.339 255.75 148.339L249.345 140.287C249.345 140.287 254.537 136.993 251.788 131.318L261.98 127.292Z" fill="#F7BBC3"/>
<path opacity="0.1" d="M263.365 135.895C263.365 135.895 264.925 138.479 268.732 136.08C272.539 133.682 281.542 133.677 281.542 133.677L290.541 129.285C290.541 129.285 289.849 113.543 287.773 112.811C287.773 112.811 291.926 114.641 293.139 110.981L300.062 130.383C300.062 130.383 299.541 134.595 295.733 136.239L281.367 145.575C281.367 145.575 275.137 149.601 275.137 159.668C275.137 169.735 273.916 185.659 273.916 185.659C273.916 185.659 253.836 198.473 245.701 183.463C245.701 183.463 248.991 165.709 246.739 161.313C246.739 161.313 246.047 149.782 240.509 147.586L226.151 133.677C226.151 133.677 223.382 131.847 225.459 126.538L230.304 113.909C230.304 113.909 233.248 118.301 235.671 116.105L232.902 128.553L238.44 134.043C238.44 134.043 243.632 136.791 246.23 136.627C248.828 136.463 251.768 137.725 251.768 137.725C251.768 137.725 252.989 145.045 258.519 144.313C258.519 144.313 269.078 143.766 263.365 135.895Z" fill="black"/>
<path opacity="0.1" d="M263.365 135.163C263.365 135.163 264.924 137.747 268.732 135.348C272.539 132.95 281.542 132.967 281.542 132.967L290.541 128.575C290.541 128.575 289.849 112.833 287.772 112.101C287.772 112.101 291.926 113.931 293.139 110.271L300.062 129.673C300.062 129.673 299.541 133.884 295.733 135.529L281.367 144.873C281.367 144.873 275.137 148.899 275.137 158.966C275.137 169.033 273.915 184.957 273.915 184.957C273.915 184.957 253.836 197.771 245.701 182.761C245.701 182.761 248.991 165.007 246.739 160.611C246.739 160.611 246.047 149.08 240.509 146.884L226.143 132.971C226.143 132.971 223.374 131.141 225.45 125.832L230.296 113.203C230.296 113.203 233.24 117.595 235.663 115.399L232.894 127.847L238.432 133.337C238.432 133.337 243.624 136.084 246.222 135.921C248.82 135.757 251.76 137.019 251.76 137.019C251.76 137.019 252.981 144.339 258.511 143.607C258.519 143.581 269.078 143.034 263.365 135.163Z" fill="black"/>
<path d="M226.151 133.333L240.517 147.245C246.055 149.441 246.747 160.973 246.747 160.973C248.999 165.365 245.709 183.122 245.709 183.122C253.853 198.133 273.924 185.318 273.924 185.318C273.924 185.318 273.964 184.793 274.029 183.867C274.086 183.058 274.164 181.938 274.249 180.608C274.363 178.885 274.494 176.805 274.616 174.549C274.889 169.619 275.137 163.875 275.137 159.328C275.137 149.26 281.367 145.234 281.367 145.234L292.146 138.233L295.737 135.899C299.545 134.25 300.066 130.043 300.066 130.043L293.143 110.641C292.011 114.06 288.31 112.686 287.83 112.492C289.866 113.465 290.546 128.945 290.546 128.945L281.546 133.337C281.546 133.337 272.547 133.337 268.736 135.718C265.478 137.742 263.886 136.192 263.479 135.68C268.952 143.43 258.523 143.951 258.523 143.951C252.985 144.683 251.772 137.363 251.772 137.363C251.772 137.363 248.828 136.071 246.234 136.265C243.64 136.459 238.444 133.682 238.444 133.682L232.906 128.192L235.675 115.743C233.232 117.939 230.308 113.547 230.308 113.547L225.463 126.176C223.382 131.503 226.151 133.333 226.151 133.333Z" fill="#8BD55D"/>
<path opacity="0.1" d="M261.98 128.023C261.929 129.175 261.985 130.328 262.147 131.468C261.394 133.452 259.996 135.086 258.204 136.075C256.412 137.064 254.344 137.344 252.375 136.863C252.768 135.238 252.547 133.515 251.76 132.058L261.98 128.023Z" fill="black"/>
<path d="M254.28 136.355C258.965 136.355 262.762 132.34 262.762 127.386C262.762 122.433 258.965 118.417 254.28 118.417C249.596 118.417 245.798 122.433 245.798 127.386C245.798 132.34 249.596 136.355 254.28 136.355Z" fill="#F7BBC3"/>
<path opacity="0.1" d="M254.415 122.284C254.488 123.192 254.549 124.161 254.154 124.971C253.934 125.378 253.66 125.749 253.34 126.073L251.564 128.006C251.005 128.526 250.57 129.18 250.298 129.914C249.785 131.722 251.3 133.518 251.251 135.408C250.979 135.858 250.576 136.202 250.103 136.387C249.629 136.572 249.111 136.588 248.628 136.433C248.237 136.274 247.868 136.059 247.533 135.791L245.794 134.538C244.471 133.583 243.086 132.549 242.423 131.008C241.726 129.384 241.962 127.507 241.93 125.724C241.854 124.64 241.839 123.551 241.885 122.465C242.001 121.428 242.276 120.419 242.7 119.476C243.466 117.591 244.723 115.974 246.324 114.813C247.125 114.241 248.027 113.846 248.975 113.652C249.924 113.457 250.9 113.467 251.845 113.681C252.149 113.781 252.464 113.841 252.782 113.857C253.397 113.857 253.926 113.427 254.492 113.172C255.212 112.875 256.004 112.837 256.747 113.063C257.49 113.29 258.141 113.768 258.601 114.425C258.975 114.985 259.191 115.653 259.582 116.195C260.164 117.005 261.113 117.517 261.508 118.443C261.903 119.369 261.638 120.428 261.724 121.427C261.846 122.32 262.106 123.185 262.494 123.989C261.533 123.636 261.064 122.525 260.458 121.672C259.977 121.04 259.374 120.523 258.69 120.156C258.005 119.789 257.254 119.581 256.487 119.545C255.958 119.519 254.977 119.476 254.557 119.903C254.024 120.449 254.362 121.621 254.415 122.284Z" fill="black"/>
<path d="M254.244 121.918C254.317 122.826 254.378 123.795 253.983 124.605C253.763 125.012 253.489 125.383 253.169 125.707L251.369 127.649C250.811 128.165 250.377 128.815 250.102 129.544C249.589 131.352 251.104 133.148 251.055 135.038C250.784 135.488 250.381 135.832 249.907 136.017C249.434 136.202 248.916 136.218 248.433 136.063C248.041 135.904 247.672 135.688 247.338 135.421L245.623 134.185C244.3 133.23 242.915 132.196 242.252 130.655C241.555 129.031 241.791 127.154 241.759 125.371C241.683 124.287 241.668 123.198 241.714 122.112C241.83 121.075 242.105 120.066 242.529 119.123C243.295 117.238 244.552 115.621 246.153 114.46C246.954 113.888 247.856 113.493 248.804 113.299C249.753 113.104 250.729 113.114 251.674 113.328C251.978 113.428 252.293 113.488 252.611 113.504C253.226 113.504 253.755 113.073 254.321 112.819C255.041 112.522 255.833 112.484 256.576 112.71C257.319 112.937 257.97 113.415 258.43 114.072C258.804 114.632 259.02 115.3 259.411 115.842C259.993 116.652 260.942 117.164 261.337 118.09C261.732 119.016 261.467 120.075 261.553 121.074C261.675 121.967 261.935 122.832 262.323 123.636C261.362 123.283 260.893 122.172 260.287 121.319C259.806 120.687 259.203 120.17 258.518 119.803C257.834 119.436 257.083 119.228 256.316 119.192C255.787 119.166 254.806 119.123 254.386 119.55C253.849 120.084 254.174 121.25 254.244 121.918Z" fill="#41383A"/>
<g opacity="0.1">
<path d="M263.437 135.63C263.389 135.567 263.365 135.529 263.365 135.529L263.437 135.63Z" fill="black"/>
<path d="M234.128 116.372C234.697 116.384 235.25 116.165 235.671 115.76L235.504 116.501C235.043 116.599 234.565 116.554 234.128 116.372Z" fill="black"/>
<path d="M264.815 136.579C269.151 143.62 259.387 144.132 259.387 144.132C258.643 144.241 257.885 144.183 257.163 143.964C257.614 144.02 258.069 144.02 258.519 143.964C258.519 143.964 268.984 143.417 263.438 135.645C263.8 136.094 264.279 136.419 264.815 136.579Z" fill="black"/>
<path d="M247.097 136.446C246.395 136.464 245.695 136.376 245.017 136.183C245.42 136.257 245.829 136.285 246.238 136.265C247.316 136.217 248.395 136.331 249.443 136.605C248.669 136.456 247.882 136.403 247.097 136.446Z" fill="black"/>
<path d="M225.459 126.194L230.304 113.564C230.499 113.845 230.708 114.114 230.931 114.37L226.326 126.357C224.249 131.667 227.018 133.497 227.018 133.497L241.384 147.409C246.922 149.605 247.614 161.136 247.614 161.136C249.866 165.528 246.576 183.286 246.576 183.286C248.759 187.312 251.8 189.314 255.087 190.141C251.475 189.491 248.087 187.48 245.721 183.101C245.721 183.101 249.011 165.347 246.759 160.951C246.759 160.951 246.067 149.42 240.529 147.224L226.151 133.333C226.151 133.333 223.382 131.503 225.459 126.194Z" fill="black"/>
<path d="M287.773 112.466C288.128 112.611 288.494 112.722 288.868 112.798C290.765 114.559 291.405 129.122 291.405 129.122L282.406 133.514C282.406 133.514 273.406 133.514 269.595 135.895C267.73 137.062 266.407 137.04 265.523 136.717C266.338 136.769 267.384 136.541 268.711 135.714C272.519 133.333 281.522 133.333 281.522 133.333L290.521 128.941C290.521 128.941 289.849 113.198 287.773 112.466Z" fill="black"/>
<path d="M289.283 112.871C290.598 113.052 292.406 112.849 293.139 110.636L293.547 111.777C292.411 113.482 290.334 113.168 289.283 112.871Z" fill="black"/>
</g>
<path opacity="0.1" d="M274.616 174.545C274.889 169.614 275.137 163.87 275.137 159.323C275.137 149.256 281.367 145.23 281.367 145.23L292.146 138.229C285.875 139.951 277.531 142.918 276.782 146.41C275.561 152.085 273.321 152.632 274.184 162.342C274.542 166.398 274.686 170.472 274.616 174.545Z" fill="black"/>
<path opacity="0.1" d="M272.971 188.518C272.971 188.518 271.411 193.642 275.74 196.936L272.971 188.518Z" fill="black"/>
<path opacity="0.1" d="M248.738 188.518C248.738 188.518 248.217 192.363 246.14 193.827L248.738 188.518Z" fill="black"/>
<path opacity="0.1" d="M270.984 262.192C270.984 262.192 279.291 266.218 286.388 267.316C289.988 267.871 291.315 266.735 291.523 265.529C291.759 266.937 290.708 268.72 286.388 268.048C279.291 266.95 270.984 262.924 270.984 262.924C270.931 262.315 270.912 261.704 270.927 261.094C270.939 261.761 270.984 262.192 270.984 262.192Z" fill="black"/>
<path opacity="0.1" d="M236.363 266.033C243.115 265.301 248.136 259.625 248.136 259.625C248.136 259.625 247.879 255.294 246.649 252.525C248.03 255.259 248.311 259.991 248.311 259.991C248.311 259.991 243.29 265.667 236.539 266.399C233.09 266.773 231.583 265.761 231.212 264.676C231.778 265.611 233.309 266.364 236.363 266.033Z" fill="black"/>
<path d="M244.483 78.3504C244.482 82.1757 245.765 85.8772 248.103 88.7956C250.442 91.714 253.684 93.6597 257.253 94.286C260.822 94.9123 264.485 94.1786 267.589 92.2155C270.694 90.2525 273.039 87.1876 274.206 83.567C275.374 79.9463 275.287 76.0051 273.963 72.4454C272.639 68.8857 270.162 65.9387 266.975 64.1296C263.788 62.3204 260.097 61.7666 256.559 62.5667C253.022 63.3668 249.868 65.4689 247.659 68.4985C245.601 71.3217 244.484 74.7858 244.483 78.3504Z" fill="url(#paint2_linear_465_110)"/>
<path d="M245.045 78.3505C245.04 82.0369 246.273 85.6053 248.524 88.4198C250.776 91.2343 253.899 93.112 257.338 93.7182C260.776 94.3244 264.307 93.6197 267.3 91.7298C270.293 89.8398 272.554 86.8874 273.68 83.3987C274.807 79.91 274.725 76.1118 273.449 72.681C272.174 69.2502 269.788 66.4098 266.716 64.666C263.645 62.9223 260.088 62.3885 256.679 63.1598C253.27 63.9311 250.231 65.9574 248.103 68.8775C246.124 71.5925 245.049 74.9228 245.045 78.3505Z" fill="#E0E0E0"/>
<path d="M251.511 70.7075V76.7444" stroke="#535461" stroke-miterlimit="10"/>
<path d="M262.416 76.2061L256.459 80.3656" stroke="#535461" stroke-miterlimit="10"/>
<path d="M256.459 66.957L263.434 70.0401" stroke="#535461" stroke-miterlimit="10"/>
<path d="M268.125 77.2783L267.742 86.6652" stroke="#535461" stroke-miterlimit="10"/>
<path d="M263.434 89.4814L255.571 85.3262" stroke="#535461" stroke-miterlimit="10"/>
<path d="M251.511 85.998V91.2384" stroke="#535461" stroke-miterlimit="10"/>
<path d="M248.596 81.9718L245.167 80.3657" stroke="#535461" stroke-miterlimit="10"/>
<path d="M267.742 69.502L267.482 65.1143" stroke="#535461" stroke-miterlimit="10"/>
<path d="M270.027 74.6001L274.278 75.8833" stroke="#535461" stroke-miterlimit="10"/>
<path d="M271.167 74.5999L267.873 68.563L262.42 69.5017V76.206L268.251 79.4268L271.167 74.5999Z" fill="#19B55A"/>
<path d="M248.103 68.8604L251.515 70.7077C252.656 69.0973 257.346 67.2199 257.346 67.2199L256.858 63.0991C253.377 63.838 250.267 65.8846 248.103 68.8604Z" fill="#19B55A"/>
<path d="M257.346 79.6942L251.385 76.7446L248.087 81.7051L251.511 87.4707L257.346 86.532V79.6942Z" fill="#19B55A"/>
<path d="M262.416 88.6762V93.6323C264.326 93.2608 266.147 92.4931 267.775 91.3734C269.403 90.2538 270.805 88.8044 271.9 87.1089L267.742 85.3047L262.416 88.6762Z" fill="#19B55A"/>
<path d="M44.1812 192.716C44.1813 195.925 45.2589 199.03 47.222 201.478C49.1851 203.925 51.9062 205.556 54.9004 206.08C57.8947 206.604 60.9676 205.987 63.5716 204.338C66.1756 202.69 68.1417 200.117 69.1193 197.079C70.097 194.041 70.0229 190.734 68.9101 187.749C67.7974 184.763 65.7183 182.292 63.0433 180.776C60.3683 179.26 57.2712 178.797 54.3038 179.471C51.3364 180.144 48.6914 181.909 46.8402 184.453C45.1158 186.821 44.1808 189.727 44.1812 192.716Z" fill="url(#paint3_linear_465_110)"/>
<path d="M44.6536 192.716C44.6543 195.806 45.6926 198.797 47.5837 201.153C49.4747 203.51 52.0956 205.081 54.9794 205.585C57.8632 206.089 60.8225 205.494 63.3303 203.906C65.838 202.318 67.7312 199.841 68.6725 196.914C69.6139 193.988 69.5422 190.804 68.4704 187.928C67.3986 185.053 65.3962 182.673 62.8199 181.213C60.2436 179.753 57.2608 179.307 54.403 179.956C51.5451 180.604 48.9978 182.305 47.2149 184.754C45.5535 187.036 44.6529 189.836 44.6536 192.716Z" fill="#E0E0E0"/>
<path d="M50.0775 186.304V191.368" stroke="#535461" stroke-miterlimit="10"/>
<path d="M59.2232 190.916L54.2228 194.404" stroke="#535461" stroke-miterlimit="10"/>
<path d="M54.2228 183.157L60.0742 185.745" stroke="#535461" stroke-miterlimit="10"/>
<path d="M64.0078 191.816L63.6902 199.691" stroke="#535461" stroke-miterlimit="10"/>
<path d="M60.0742 202.051L53.4776 198.563" stroke="#535461" stroke-miterlimit="10"/>
<path d="M50.0775 199.127V203.524" stroke="#535461" stroke-miterlimit="10"/>
<path d="M47.6302 195.752L44.7554 194.404" stroke="#535461" stroke-miterlimit="10"/>
<path d="M63.6902 185.292L63.4703 181.615" stroke="#535461" stroke-miterlimit="10"/>
<path d="M65.604 189.568L69.1711 190.645" stroke="#535461" stroke-miterlimit="10"/>
<path d="M66.561 189.568L63.7961 184.509L59.2232 185.292V190.916L64.1137 193.616L66.561 189.568Z" fill="#19B55A"/>
<path d="M47.2149 184.754L50.0653 186.304C51.0222 184.956 54.9517 183.38 54.9517 183.38L54.5445 179.936C51.6319 180.555 49.0289 182.266 47.2149 184.754Z" fill="#19B55A"/>
<path d="M54.9679 193.84L49.9716 191.368L47.2026 195.528L50.0775 200.363L54.9679 199.575V193.84Z" fill="#19B55A"/>
<path d="M59.2232 201.375V205.547C60.8248 205.235 62.3522 204.591 63.7171 203.652C65.082 202.712 66.2576 201.497 67.1758 200.074L63.6902 198.563L59.2232 201.375Z" fill="#19B55A"/>
<path d="M34.7749 208.996C34.775 212.206 35.8526 215.311 37.8157 217.758C39.7788 220.206 42.4999 221.837 45.4941 222.361C48.4884 222.885 51.5613 222.268 54.1653 220.619C56.7693 218.971 58.7353 216.398 59.713 213.36C60.6907 210.322 60.6166 207.015 59.5038 204.029C58.3911 201.044 56.312 198.572 53.637 197.056C50.962 195.54 47.8649 195.078 44.8975 195.751C41.9301 196.425 39.2851 198.19 37.4339 200.733C35.7095 203.102 34.7745 206.007 34.7749 208.996Z" fill="url(#paint4_linear_465_110)"/>
<path d="M35.2473 208.996C35.248 212.087 36.2863 215.077 38.1774 217.434C40.0684 219.791 42.6893 221.361 45.5731 221.865C48.4569 222.37 51.4162 221.775 53.924 220.187C56.4317 218.599 58.3249 216.121 59.2662 213.195C60.2076 210.269 60.1359 207.084 59.0641 204.209C57.9923 201.333 55.9898 198.954 53.4136 197.494C50.8373 196.034 47.8545 195.588 44.9967 196.237C42.1388 196.885 39.5915 198.586 37.8085 201.035C36.1472 203.317 35.2466 206.116 35.2473 208.996Z" fill="#E0E0E0"/>
<path d="M40.6711 202.585V207.644" stroke="#535461" stroke-miterlimit="10"/>
<path d="M49.8169 207.197L44.8206 210.685" stroke="#535461" stroke-miterlimit="10"/>
<path d="M44.8206 199.438L50.668 202.025" stroke="#535461" stroke-miterlimit="10"/>
<path d="M54.6015 208.097L54.2839 215.968" stroke="#535461" stroke-miterlimit="10"/>
<path d="M50.668 218.332L44.0754 214.844" stroke="#535461" stroke-miterlimit="10"/>
<path d="M40.6711 215.408V219.805" stroke="#535461" stroke-miterlimit="10"/>
<path d="M38.2239 212.032L35.3491 210.685" stroke="#535461" stroke-miterlimit="10"/>
<path d="M54.2839 201.573L54.064 197.896" stroke="#535461" stroke-miterlimit="10"/>
<path d="M56.1977 205.849L59.7648 206.925" stroke="#535461" stroke-miterlimit="10"/>
<path d="M57.1546 205.849L54.3898 200.785L49.8169 201.573V207.197L54.7114 209.896L57.1546 205.849Z" fill="#19B55A"/>
<path d="M37.8085 201.035L40.6589 202.585C41.6159 201.237 45.5453 199.661 45.5453 199.661L45.1381 196.216C42.2255 196.836 39.6225 198.547 37.8085 201.035Z" fill="#19B55A"/>
<path d="M45.5617 210.12L40.5653 207.645L37.8004 211.808L40.6712 216.644L45.5617 215.856V210.12Z" fill="#19B55A"/>
<path d="M49.8169 217.643V221.815C51.4179 221.504 52.9448 220.861 54.3097 219.923C55.6746 218.986 56.8505 217.771 57.7695 216.351L54.2839 214.839L49.8169 217.643Z" fill="#19B55A"/>
</g>
<defs>
<linearGradient id="paint0_linear_465_110" x1="155.579" y1="123.492" x2="155.579" y2="123.386" gradientUnits="userSpaceOnUse">
<stop stop-color="#808080" stop-opacity="0.25"/>
<stop offset="0.54" stop-color="#808080" stop-opacity="0.12"/>
<stop offset="1" stop-color="#808080" stop-opacity="0.1"/>
</linearGradient>
<linearGradient id="paint1_linear_465_110" x1="262.412" y1="269.12" x2="262.412" y2="100.526" gradientUnits="userSpaceOnUse">
<stop stop-color="#808080" stop-opacity="0.25"/>
<stop offset="0.54" stop-color="#808080" stop-opacity="0.12"/>
<stop offset="1" stop-color="#808080" stop-opacity="0.1"/>
</linearGradient>
<linearGradient id="paint2_linear_465_110" x1="259.753" y1="94.4976" x2="259.753" y2="62.2032" gradientUnits="userSpaceOnUse">
<stop stop-color="#808080" stop-opacity="0.25"/>
<stop offset="0.54" stop-color="#808080" stop-opacity="0.12"/>
<stop offset="1" stop-color="#808080" stop-opacity="0.1"/>
</linearGradient>
<linearGradient id="paint3_linear_465_110" x1="56.9877" y1="206.258" x2="56.9877" y2="179.174" gradientUnits="userSpaceOnUse">
<stop stop-color="#808080" stop-opacity="0.25"/>
<stop offset="0.54" stop-color="#808080" stop-opacity="0.12"/>
<stop offset="1" stop-color="#808080" stop-opacity="0.1"/>
</linearGradient>
<linearGradient id="paint4_linear_465_110" x1="47.5854" y1="222.539" x2="47.5854" y2="195.454" gradientUnits="userSpaceOnUse">
<stop stop-color="#808080" stop-opacity="0.25"/>
<stop offset="0.54" stop-color="#808080" stop-opacity="0.12"/>
<stop offset="1" stop-color="#808080" stop-opacity="0.1"/>
</linearGradient>
<clipPath id="clip0_465_110">
<rect width="466" height="344" fill="white"/>
</clipPath>
</defs>
</svg>
